<?xml version="1.0" standalone="no"?>
<svg xmlns:xlink="http://www.w3.org/1999/xlink" id="wave" style="transform:rotate(180deg); transition: 0.3s" viewBox="0 0 1440 270" version="1.1" xmlns="http://www.w3.org/2000/svg"><defs><linearGradient id="sw-gradient-0" x1="0" x2="0" y1="1" y2="0"><stop stop-color="rgba(62, 144.9, 243, 1)" offset="0%"/><stop stop-color="rgba(11, 56.632, 255, 1)" offset="100%"/></linearGradient></defs><path style="transform:translate(0, 0px); opacity:1" fill="url(#sw-gradient-0)" d="M0,54L120,76.5C240,99,480,144,720,153C960,162,1200,135,1440,126C1680,117,1920,126,2160,108C2400,90,2640,45,2880,40.5C3120,36,3360,72,3600,90C3840,108,4080,108,4320,90C4560,72,4800,36,5040,22.5C5280,9,5520,18,5760,40.5C6000,63,6240,99,6480,112.5C6720,126,6960,117,7200,103.5C7440,90,7680,72,7920,85.5C8160,99,8400,144,8640,144C8880,144,9120,99,9360,90C9600,81,9840,108,10080,121.5C10320,135,10560,135,10800,148.5C11040,162,11280,189,11520,193.5C11760,198,12000,180,12240,180C12480,180,12720,198,12960,189C13200,180,13440,144,13680,112.5C13920,81,14160,54,14400,58.5C14640,63,14880,99,15120,112.5C15360,126,15600,117,15840,108C16080,99,16320,90,16560,94.5C16800,99,17040,117,17160,126L17280,135L17280,270L17160,270C17040,270,16800,270,16560,270C16320,270,16080,270,15840,270C15600,270,15360,270,15120,270C14880,270,14640,270,14400,270C14160,270,13920,270,13680,270C13440,270,13200,270,12960,270C12720,270,12480,270,12240,270C12000,270,11760,270,11520,270C11280,270,11040,270,10800,270C10560,270,10320,270,10080,270C9840,270,9600,270,9360,270C9120,270,8880,270,8640,270C8400,270,8160,270,7920,270C7680,270,7440,270,7200,270C6960,270,6720,270,6480,270C6240,270,6000,270,5760,270C5520,270,5280,270,5040,270C4800,270,4560,270,4320,270C4080,270,3840,270,3600,270C3360,270,3120,270,2880,270C2640,270,2400,270,2160,270C1920,270,1680,270,1440,270C1200,270,960,270,720,270C480,270,240,270,120,270L0,270Z"/></svg>